grf
version=1
nRows=27
nColumns=46
inDegrees=yes
endheader
time	ground_force_1_vx	ground_force_1_vy	ground_force_1_vz	ground_force_1_px	ground_force_1_py	ground_force_1_pz	ground_moment_1_mx	ground_moment_1_my	ground_moment_1_mz	ground_force_2_vx	ground_force_2_vy	ground_force_2_vz	ground_force_2_px	ground_force_2_py	ground_force_2_pz	ground_moment_2_mx	ground_moment_2_my	ground_moment_2_mz	ground_force_3_vx	ground_force_3_vy	ground_force_3_vz	ground_force_3_px	ground_force_3_py	ground_force_3_pz	ground_moment_3_mx	ground_moment_3_my	ground_moment_3_mz	ground_force_4_vx	ground_force_4_vy	ground_force_4_vz	ground_force_4_px	ground_force_4_py	ground_force_4_pz	ground_moment_4_mx	ground_moment_4_my	ground_moment_4_mz	ground_force_5_vx	ground_force_5_vy	ground_force_5_vz	ground_force_5_px	ground_force_5_py	ground_force_5_pz	ground_moment_5_mx	ground_moment_5_my	ground_moment_5_mz
0.662500	0.000000	0.000000	0.000000	0.000000	0.000000	0.000000	0.000000	0.000000	0.000000	0.000000	0.000000	0.000000	0.000000	0.000000	0.000000	0.000000	0.000000	0.000000	0.000000	0.000000	0.000000	0.000000	0.000000	0.000000	0.000000	0.000000	0.000000	18.768341	603.184776	-133.676716	0.154539	0.000000	-0.866806	0.000000	4.564079	0.000000	-0.284513	607.388310	132.703482	0.196978	0.000000	-1.587147	0.000000	-7.990019	-0.000000
0.663000	0.000000	0.000000	0.000000	0.000000	0.000000	0.000000	0.000000	0.000000	0.000000	0.000000	0.000000	0.000000	0.000000	0.000000	0.000000	0.000000	0.000000	0.000000	0.000000	0.000000	0.000000	0.000000	0.000000	0.000000	0.000000	0.000000	0.000000	18.597596	603.110936	-133.613187	0.154584	0.000000	-0.866795	0.000000	4.568914	0.000000	-0.356489	607.373891	132.819474	0.196985	0.000000	-1.587165	0.000000	-7.991303	-0.000000
0.663500	0.000000	0.000000	0.000000	0.000000	0.000000	0.000000	0.000000	0.000000	0.000000	0.000000	0.000000	0.000000	0.000000	0.000000	0.000000	0.000000	0.000000	0.000000	0.000000	0.000000	0.000000	0.000000	0.000000	0.000000	0.000000	0.000000	0.000000	18.425492	603.047442	-133.553091	0.154628	0.000000	-0.866784	0.000000	4.573730	0.000000	-0.431173	607.355087	132.937846	0.196992	0.000000	-1.587183	0.000000	-7.992590	-0.000000
0.664000	0.000000	0.000000	0.000000	0.000000	0.000000	0.000000	0.000000	0.000000	0.000000	0.000000	0.000000	0.000000	0.000000	0.000000	0.000000	0.000000	0.000000	0.000000	0.000000	0.000000	0.000000	0.000000	0.000000	0.000000	0.000000	0.000000	0.000000	18.252094	602.994210	-133.496456	0.154672	0.000000	-0.866773	0.000000	4.578519	0.000000	-0.508493	607.331963	133.058509	0.196999	0.000000	-1.587202	0.000000	-7.993883	-0.000000
0.664500	0.000000	0.000000	0.000000	0.000000	0.000000	0.000000	0.000000	0.000000	0.000000	0.000000	0.000000	0.000000	0.000000	0.000000	0.000000	0.000000	0.000000	0.000000	0.000000	0.000000	0.000000	0.000000	0.000000	0.000000	0.000000	0.000000	0.000000	18.077459	602.951135	-133.443303	0.154714	0.000000	-0.866763	0.000000	4.583276	0.000000	-0.588365	607.304579	133.181366	0.197007	0.000000	-1.587221	0.000000	-7.995185	-0.000000
0.665000	0.000000	0.000000	0.000000	0.000000	0.000000	0.000000	0.000000	0.000000	0.000000	0.000000	0.000000	0.000000	0.000000	0.000000	0.000000	0.000000	0.000000	0.000000	0.000000	0.000000	0.000000	0.000000	0.000000	0.000000	0.000000	0.000000	0.000000	17.901631	602.918093	-133.393642	0.154757	0.000000	-0.866753	0.000000	4.587996	0.000000	-0.670694	607.272997	133.306312	0.197015	0.000000	-1.587242	0.000000	-7.996497	-0.000000
0.665500	0.000000	0.000000	0.000000	0.000000	0.000000	0.000000	0.000000	0.000000	0.000000	0.000000	0.000000	0.000000	0.000000	0.000000	0.000000	0.000000	0.000000	0.000000	0.000000	0.000000	0.000000	0.000000	0.000000	0.000000	0.000000	0.000000	0.000000	17.724649	602.894954	-133.347472	0.154798	0.000000	-0.866743	0.000000	4.592674	0.000000	-0.755370	607.237283	133.433235	0.197023	0.000000	-1.587263	0.000000	-7.997820	-0.000000
0.666000	0.000000	0.000000	0.000000	0.000000	0.000000	0.000000	0.000000	0.000000	0.000000	0.000000	0.000000	0.000000	0.000000	0.000000	0.000000	0.000000	0.000000	0.000000	0.000000	0.000000	0.000000	0.000000	0.000000	0.000000	0.000000	0.000000	0.000000	17.546546	602.881590	-133.304779	0.154838	0.000000	-0.866733	0.000000	4.597304	0.000000	-0.842270	607.197504	133.562019	0.197032	0.000000	-1.587285	0.000000	-7.999156	-0.000000
0.666500	0.000000	0.000000	0.000000	0.000000	0.000000	0.000000	0.000000	0.000000	0.000000	0.000000	0.000000	0.000000	0.000000	0.000000	0.000000	0.000000	0.000000	0.000000	0.000000	0.000000	0.000000	0.000000	0.000000	0.000000	0.000000	0.000000	0.000000	17.367354	602.877872	-133.265544	0.154878	0.000000	-0.866724	0.000000	4.601880	0.000000	-0.931259	607.153727	133.692535	0.197041	0.000000	-1.587307	0.000000	-8.000506	-0.000000
0.667000	0.000000	0.000000	0.000000	0.000000	0.000000	0.000000	0.000000	0.000000	0.000000	0.000000	0.000000	0.000000	0.000000	0.000000	0.000000	0.000000	0.000000	0.000000	0.000000	0.000000	0.000000	0.000000	0.000000	0.000000	0.000000	0.000000	0.000000	17.187111	602.883655	-133.229741	0.154917	0.000000	-0.866716	0.000000	4.606393	0.000000	-1.022195	607.106007	133.824641	0.197050	0.000000	-1.587330	0.000000	-8.001871	-0.000000
0.667500	0.000000	0.000000	0.000000	0.000000	0.000000	0.000000	0.000000	0.000000	0.000000	0.000000	0.000000	0.000000	0.000000	0.000000	0.000000	0.000000	0.000000	0.000000	0.000000	0.000000	0.000000	0.000000	0.000000	0.000000	0.000000	0.000000	0.000000	17.005855	602.898772	-133.197343	0.154956	0.000000	-0.866707	0.000000	4.610835	0.000000	-1.114932	607.054390	133.958180	0.197059	0.000000	-1.587354	0.000000	-8.003252	-0.000000
0.668000	0.000000	0.000000	0.000000	0.000000	0.000000	0.000000	0.000000	0.000000	0.000000	0.000000	0.000000	0.000000	0.000000	0.000000	0.000000	0.000000	0.000000	0.000000	0.000000	0.000000	0.000000	0.000000	0.000000	0.000000	0.000000	0.000000	0.000000	16.823627	602.923036	-133.168326	0.154994	0.000000	-0.866699	0.000000	4.615200	0.000000	-1.209319	606.998915	134.092983	0.197069	0.000000	-1.587378	0.000000	-8.004650	-0.000000
0.668500	0.000000	0.000000	0.000000	0.000000	0.000000	0.000000	0.000000	0.000000	0.000000	0.000000	0.000000	0.000000	0.000000	0.000000	0.000000	0.000000	0.000000	0.000000	0.000000	0.000000	0.000000	0.000000	0.000000	0.000000	0.000000	0.000000	0.000000	16.640461	602.956228	-133.142662	0.155031	0.000000	-0.866691	0.000000	4.619480	0.000000	-1.305200	606.939634	134.228872	0.197078	0.000000	-1.587402	0.000000	-8.006063	-0.000000
0.669000	0.000000	0.000000	0.000000	0.000000	0.000000	0.000000	0.000000	0.000000	0.000000	0.000000	0.000000	0.000000	0.000000	0.000000	0.000000	0.000000	0.000000	0.000000	0.000000	0.000000	0.000000	0.000000	0.000000	0.000000	0.000000	0.000000	0.000000	16.456392	602.998100	-133.120320	0.155067	0.000000	-0.866684	0.000000	4.623673	0.000000	-1.402411	606.876613	134.365661	0.197087	0.000000	-1.587428	0.000000	-8.007489	-0.000000
0.669500	0.000000	0.000000	0.000000	0.000000	0.000000	0.000000	0.000000	0.000000	0.000000	0.000000	0.000000	0.000000	0.000000	0.000000	0.000000	0.000000	0.000000	0.000000	0.000000	0.000000	0.000000	0.000000	0.000000	0.000000	0.000000	0.000000	0.000000	16.271450	603.048381	-133.101263	0.155103	0.000000	-0.866677	0.000000	4.627774	0.000000	-1.500787	606.809934	134.503158	0.197097	0.000000	-1.587453	0.000000	-8.008928	-0.000000
0.670000	0.000000	0.000000	0.000000	0.000000	0.000000	0.000000	0.000000	0.000000	0.000000	0.000000	0.000000	0.000000	0.000000	0.000000	0.000000	0.000000	0.000000	0.000000	0.000000	0.000000	0.000000	0.000000	0.000000	0.000000	0.000000	0.000000	0.000000	16.085661	603.106780	-133.085448	0.155138	0.000000	-0.866670	0.000000	4.631781	0.000000	-1.600159	606.739681	134.641160	0.197106	0.000000	-1.587479	0.000000	-8.010377	-0.000000
0.670500	0.000000	0.000000	0.000000	0.000000	0.000000	0.000000	0.000000	0.000000	0.000000	0.000000	0.000000	0.000000	0.000000	0.000000	0.000000	0.000000	0.000000	0.000000	0.000000	0.000000	0.000000	0.000000	0.000000	0.000000	0.000000	0.000000	0.000000	15.899053	603.172992	-133.072829	0.155173	0.000000	-0.866664	0.000000	4.635691	0.000000	-1.700361	606.665934	134.779461	0.197115	0.000000	-1.587506	0.000000	-8.011833	-0.000000
0.671000	0.000000	0.000000	0.000000	0.000000	0.000000	0.000000	0.000000	0.000000	0.000000	0.000000	0.000000	0.000000	0.000000	0.000000	0.000000	0.000000	0.000000	0.000000	0.000000	0.000000	0.000000	0.000000	0.000000	0.000000	0.000000	0.000000	0.000000	15.711651	603.246697	-133.063354	0.155206	0.000000	-0.866658	0.000000	4.639505	0.000000	-1.801219	606.588769	134.917848	0.197124	0.000000	-1.587532	0.000000	-8.013293	-0.000000
0.671500	0.000000	0.000000	0.000000	0.000000	0.000000	0.000000	0.000000	0.000000	0.000000	0.000000	0.000000	0.000000	0.000000	0.000000	0.000000	0.000000	0.000000	0.000000	0.000000	0.000000	0.000000	0.000000	0.000000	0.000000	0.000000	0.000000	0.000000	15.523486	603.327554	-133.056964	0.155240	0.000000	-0.866653	0.000000	4.643223	0.000000	-1.902555	606.508268	135.056108	0.197133	0.000000	-1.587559	0.000000	-8.014752	-0.000000
0.672000	0.000000	0.000000	0.000000	0.000000	0.000000	0.000000	0.000000	0.000000	0.000000	0.000000	0.000000	0.000000	0.000000	0.000000	0.000000	0.000000	0.000000	0.000000	0.000000	0.000000	0.000000	0.000000	0.000000	0.000000	0.000000	0.000000	0.000000	15.334587	603.415204	-133.053595	0.155273	0.000000	-0.866647	0.000000	4.646847	0.000000	-2.004181	606.424517	135.194030	0.197142	0.000000	-1.587587	0.000000	-8.016206	-0.000000
0.672500	0.000000	0.000000	0.000000	0.000000	0.000000	0.000000	0.000000	0.000000	0.000000	0.000000	0.000000	0.000000	0.000000	0.000000	0.000000	0.000000	0.000000	0.000000	0.000000	0.000000	0.000000	0.000000	0.000000	0.000000	0.000000	0.000000	0.000000	15.144983	603.509273	-133.053180	0.155305	0.000000	-0.866642	0.000000	4.650379	0.000000	-2.105905	606.337607	135.331403	0.197151	0.000000	-1.587614	0.000000	-8.017646	-0.000000
0.673000	0.000000	0.000000	0.000000	0.000000	0.000000	0.000000	0.000000	0.000000	0.000000	0.000000	0.000000	0.000000	0.000000	0.000000	0.000000	0.000000	0.000000	0.000000	0.000000	0.000000	0.000000	0.000000	0.000000	0.000000	0.000000	0.000000	0.000000	14.954692	603.609369	-133.055651	0.155337	0.000000	-0.866638	0.000000	4.653823	0.000000	-2.207535	606.247623	135.468024	0.197159	0.000000	-1.587642	0.000000	-8.019068	-0.000000
0.673500	0.000000	0.000000	0.000000	0.000000	0.000000	0.000000	0.000000	0.000000	0.000000	0.000000	0.000000	0.000000	0.000000	0.000000	0.000000	0.000000	0.000000	0.000000	0.000000	0.000000	0.000000	0.000000	0.000000	0.000000	0.000000	0.000000	0.000000	14.763727	603.715093	-133.060936	0.155368	0.000000	-0.866633	0.000000	4.657185	0.000000	-2.308882	606.154655	135.603689	0.197167	0.000000	-1.587670	0.000000	-8.020466	-0.000000
0.674000	0.000000	0.000000	0.000000	0.000000	0.000000	0.000000	0.000000	0.000000	0.000000	0.000000	0.000000	0.000000	0.000000	0.000000	0.000000	0.000000	0.000000	0.000000	0.000000	0.000000	0.000000	0.000000	0.000000	0.000000	0.000000	0.000000	0.000000	14.572097	603.826053	-133.068968	0.155399	0.000000	-0.866629	0.000000	4.660470	0.000000	-2.409763	606.058802	135.738202	0.197175	0.000000	-1.587698	0.000000	-8.021834	-0.000000
0.674500	0.000000	0.000000	0.000000	0.000000	0.000000	0.000000	0.000000	0.000000	0.000000	0.000000	0.000000	0.000000	0.000000	0.000000	0.000000	0.000000	0.000000	0.000000	0.000000	0.000000	0.000000	0.000000	0.000000	0.000000	0.000000	0.000000	0.000000	14.379815	603.941873	-133.079674	0.155429	0.000000	-0.866626	0.000000	4.663684	0.000000	-2.510000	605.960175	135.871366	0.197182	0.000000	-1.587727	0.000000	-8.023169	-0.000000
0.675000	0.000000	0.000000	0.000000	0.000000	0.000000	0.000000	0.000000	0.000000	0.000000	0.000000	0.000000	0.000000	0.000000	0.000000	0.000000	0.000000	0.000000	0.000000	0.000000	0.000000	0.000000	0.000000	0.000000	0.000000	0.000000	0.000000	0.000000	14.186897	604.062199	-133.092974	0.155459	0.000000	-0.866622	0.000000	4.666832	0.000000	-2.609423	605.858891	136.002987	0.197189	0.000000	-1.587755	0.000000	-8.024464	-0.000000
0.675500	0.000000	0.000000	0.000000	0.000000	0.000000	0.000000	0.000000	0.000000	0.000000	0.000000	0.000000	0.000000	0.000000	0.000000	0.000000	0.000000	0.000000	0.000000	0.000000	0.000000	0.000000	0.000000	0.000000	0.000000	0.000000	0.000000	0.000000	13.993367	604.186689	-133.108782	0.155489	0.000000	-0.866619	0.000000	4.669918	0.000000	-2.707862	605.755076	136.132872	0.197196	0.000000	-1.587784	0.000000	-8.025716	-0.000000
